<svg width="40" height="40" viewBox="0 0 40 40" fill="none" xmlns="http://www.w3.org/2000/svg">
<g clip-path="url(#clip0_133_3403)">
<path d="M27.8333 5C32.8967 5 37 9.16667 37 15C37 26.6667 24.5 33.3333 20.3333 35.8333C17.0383 33.8567 8.52833 29.2717 5.115 21.6683L2 21.6667V18.3333H4.01667C3.79 17.2733 3.66667 16.1633 3.66667 15C3.66667 9.16667 7.83333 5 12.8333 5C15.9333 5 18.6667 6.66667 20.3333 8.33333C22 6.66667 24.7333 5 27.8333 5ZM27.8333 8.33333C26.04 8.33333 24.1 9.28333 22.69 10.69L20.3333 13.0467L17.9767 10.69C16.5667 9.28333 14.6267 8.33333 12.8333 8.33333C9.6 8.33333 7 11.0933 7 15C7 16.1417 7.15 17.2533 7.445 18.3333H11.0567L14.5 12.5933L19.5 20.9267L21.0567 18.3333H28.6667V21.6667H22.9433L19.5 27.4067L14.5 19.0733L12.9433 21.6667H8.84667C10.1633 23.9567 12.155 26.1133 14.7417 28.1717C15.9833 29.1583 17.3083 30.08 18.7767 31.005C19.275 31.32 19.7683 31.6217 20.3333 31.9583C20.8983 31.6217 21.3917 31.32 21.89 31.0067C23.3583 30.08 24.6833 29.1583 25.9233 28.1717C30.8917 24.2217 33.6667 19.905 33.6667 15C33.6667 11.0667 31.105 8.33333 27.8333 8.33333Z" fill="url(#paint0_linear_133_3403)"/>
</g>
<defs>
<linearGradient id="paint0_linear_133_3403" x1="2" y1="20.0887" x2="37" y2="20.0887" gradientUnits="userSpaceOnUse">
<stop stop-color="#052D81"/>
<stop offset="1" stop-color="#00BCFF"/>
</linearGradient>
<clipPath id="clip0_133_3403">
<rect width="40" height="40" fill="white"/>
</clipPath>
</defs>
</svg>
